<svg width="24" height="24" viewBox="0 0 24 24" fill="none" xmlns="http://www.w3.org/2000/svg">
<path d="M12 5.12153L11.8635 4.99264C10.7014 3.85554 9.14236 3.21536 7.5165 3.20764C5.92264 3.20764 4.39391 3.84008 3.2659 4.96612C2.13789 6.09216 1.50278 7.61979 1.5 9.21364C1.5 12.4476 2.6865 13.9911 7.989 18.1806L10.7737 20.3421C11.4953 20.9022 12.5047 20.9022 13.2263 20.3421L16.011 18.1806C21.3135 13.9911 22.5 12.4476 22.5 9.21364C22.4972 7.61979 21.8621 6.09216 20.7341 4.96612C19.6061 3.84008 18.0773 3.20764 16.4835 3.20764C14.8576 3.21536 13.2986 3.85554 12.1365 4.99264L12 5.12153Z" fill="black"/>
</svg>
