<svg width="24" height="24" viewBox="0 0 24 24" fill="none" xmlns="http://www.w3.org/2000/svg">
<path fill-rule="evenodd" clip-rule="evenodd" d="M16.7878 11.8383C15.8536 12.2387 14.7677 11.8747 14.2635 10.9923L11.9999 7.03116L9.73643 10.9923C9.23218 11.8747 8.14628 12.2387 7.2121 11.8383L3.5247 10.258L4.71578 18L19.2841 18L20.4752 10.258L16.7878 11.8383ZM22.1718 7.35495C22.5325 7.20035 22.9226 7.50264 22.8629 7.89055L21.2608 18.3041C21.1107 19.2798 20.2712 20 19.2841 20H4.71578C3.72864 20 2.88914 19.2798 2.73904 18.3041L1.13695 7.89055C1.07727 7.50264 1.46735 7.20035 1.82809 7.35495L7.99994 10L11.5658 3.75974C11.7578 3.42384 12.2421 3.42384 12.4341 3.75974L15.9999 10L22.1718 7.35495Z" fill="black"/>
</svg>
