<svg width="24" height="24" viewBox="0 0 24 24" fill="none" xmlns="http://www.w3.org/2000/svg">
<path d="M12 9.25C12 10.2165 11.2165 11 10.25 11C9.2835 11 8.5 10.2165 8.5 9.25C8.5 8.2835 9.2835 7.5 10.25 7.5C11.2165 7.5 12 8.2835 12 9.25Z" fill="black"/>
<path fill-rule="evenodd" clip-rule="evenodd" d="M3 5C3 3.89543 3.89543 3 5 3H19C20.1046 3 21 3.89543 21 5V19C21 20.1046 20.1046 21 19 21H5C3.89543 21 3 20.1046 3 19V5ZM5 13.2778L5.69519 12.6598C6.4427 11.9954 7.56613 11.9853 8.3255 12.6361L10.5 14.5L14.5858 10.4142C15.3668 9.63317 16.6332 9.63317 17.4142 10.4142L19 12V5H5V13.2778ZM16 11.8284L19 14.8284V19H5V15.9537L7.02391 14.1547L9.19842 16.0185C9.9919 16.6986 11.1752 16.6532 11.9142 15.9142L16 11.8284Z" fill="black"/>
</svg>
