<svg width="24" height="24" viewBox="0 0 24 24" fill="none" xmlns="http://www.w3.org/2000/svg">
<path fill-rule="evenodd" clip-rule="evenodd" d="M11.0771 2.46985C11.4187 1.64856 12.5821 1.64856 12.9237 2.46985L15.3331 8.26279L21.5871 8.76417C22.4738 8.83526 22.8333 9.94176 22.1578 10.5204L17.3929 14.602L18.8486 20.7049C19.055 21.5701 18.1138 22.2539 17.3547 21.7903L12.0004 18.5199L6.64613 21.7903C5.88703 22.2539 4.94578 21.5701 5.15217 20.7049L6.60791 14.602L1.84305 10.5204C1.16751 9.94176 1.52703 8.83526 2.41369 8.76417L8.66766 8.26279L11.0771 2.46985ZM13.4865 9.03086C13.7745 9.72333 14.4257 10.1965 15.1733 10.2564L19.0307 10.5656L16.0918 13.0831C15.5222 13.571 15.2735 14.3366 15.4475 15.0661L16.3454 18.8302L13.0429 16.8131C12.4029 16.4222 11.5979 16.4222 10.9579 16.8131L7.65544 18.8302L8.55333 15.0661C8.72734 14.3366 8.4786 13.571 7.90902 13.0831L4.97011 10.5656L8.82748 10.2564C9.57506 10.1965 10.2263 9.72333 10.5143 9.03086L12.0004 5.45784L13.4865 9.03086Z" fill="black"/>
</svg>
