<svg width="24" height="24" viewBox="0 0 24 24" fill="none" xmlns="http://www.w3.org/2000/svg">
<path fill-rule="evenodd" clip-rule="evenodd" d="M16 7C16 9.20914 14.2091 11 12 11C9.79086 11 8 9.20914 8 7C8 4.79086 9.79086 3 12 3C14.2091 3 16 4.79086 16 7ZM14 7C14 8.10457 13.1046 9 12 9C10.8954 9 10 8.10457 10 7C10 5.89543 10.8954 5 12 5C13.1046 5 14 5.89543 14 7Z" fill="black"/>
<path fill-rule="evenodd" clip-rule="evenodd" d="M20 17.1666C20 16.7333 19.8642 16.3074 19.5815 15.979C17.7477 13.8488 15.0313 12.5 12 12.5C8.96866 12.5 6.25235 13.8488 4.41847 15.979C4.13576 16.3074 4 16.7333 4 17.1666V19C4 20.1046 4.89543 21 6 21H18C19.1046 21 20 20.1046 20 19V17.1666ZM18 17.2083C16.5313 15.5445 14.3887 14.5 12 14.5C9.61132 14.5 7.46872 15.5445 6 17.2083V19H18V17.2083ZM6.00017 17.1622C6.00017 17.1622 6.00018 17.1622 6.00017 17.1623C6.00016 17.1624 6.00015 17.1625 6.00012 17.1627C6.00014 17.1625 6.00016 17.1623 6.00017 17.1622Z" fill="black"/>
</svg>
