<svg width="24" height="24" viewBox="0 0 24 24" fill="none" xmlns="http://www.w3.org/2000/svg">
<path d="M14.9377 8L18.5945 8L13.0087 13.5858L9.71586 10.2929C9.52833 10.1054 9.27397 10 9.00876 10C8.74354 10 8.48918 10.1054 8.30165 10.2929L2.00871 16.5858C1.9599 16.6346 1.91719 16.6873 1.88057 16.7427C1.62429 17.1309 1.667 17.6583 2.00871 18.0001C2.39924 18.3906 3.0324 18.3906 3.42293 18.0001L9.00875 12.4142L12.3016 15.7071C12.4892 15.8947 12.7435 16 13.0087 16C13.2739 16 13.5283 15.8947 13.7158 15.7071L20.0087 9.41421L20.0087 13.0711C20.0087 13.6234 20.4565 14.0711 21.0087 14.0711C21.561 14.0711 22.0087 13.6233 22.0087 13.0711L22.0087 7C22.0087 6.44772 21.561 6 21.0087 6L14.9377 6C14.8686 6 14.8012 6.007 14.7361 6.02032C14.2804 6.11356 13.9377 6.51675 13.9377 7C13.9377 7.55229 14.3854 8 14.9377 8Z" fill="black"/>
</svg>
