<svg width="24" height="24" viewBox="0 0 24 24" fill="none" xmlns="http://www.w3.org/2000/svg">
<path d="M2.18557 11C1.71748 11 1.50603 10.4143 1.86615 10.1153L10.7231 2.76087C11.4638 2.14579 12.5377 2.14579 13.2784 2.76087L22.1353 10.1153C22.4954 10.4143 22.284 11 21.8159 11H20.0007V20C20.0007 20.5522 19.553 21 19.0007 21H15.0007C14.4485 21 14.0007 20.5522 14.0007 20V15C14.0007 14.4477 13.553 14 13.0007 14H11.0007C10.4484 14 10.0007 14.4477 10.0007 15V20C10.0007 20.5522 9.55302 21 9.00073 21H5.00073C4.44845 21 4.00073 20.5522 4.00073 20V11H2.18557Z" fill="black"/>
</svg>
