<svg width="24" height="24" viewBox="0 0 24 24" fill="none" xmlns="http://www.w3.org/2000/svg">
<path fill-rule="evenodd" clip-rule="evenodd" d="M4.00074 11V20C4.00074 20.5522 4.44845 21 5.00074 21H10.0007C10.553 21 11.0007 20.5522 11.0007 20V14H13.0007V20C13.0007 20.5522 13.4485 21 14.0007 21H19.0007C19.553 21 20.0007 20.5522 20.0007 20V11H21.8159C22.284 11 22.4954 10.4143 22.1353 10.1153L13.2784 2.76087C12.5377 2.14579 11.4638 2.14579 10.7231 2.76087L1.86615 10.1153C1.50603 10.4143 1.71748 11 2.18557 11H4.00074ZM15.0007 14V19H18.0007L18.0007 9.2817L12.0007 4.29956L6.00073 9.28171V10.9955L6.00074 11V19H9.00074L9.00073 13C9.00073 12.4477 9.44845 12 10.0007 12H14.0007C14.553 12 15.0007 12.4477 15.0007 13V13.9956L15.0007 14Z" fill="black"/>
</svg>
