<svg width="24" height="24" viewBox="0 0 24 24" fill="none" xmlns="http://www.w3.org/2000/svg">
<path d="M12 11C14.2091 11 16 9.20914 16 7C16 4.79086 14.2091 3 12 3C9.79086 3 8 4.79086 8 7C8 9.20914 9.79086 11 12 11Z" fill="black"/>
<path d="M19.5815 16.479C19.8642 16.8074 20 17.2333 20 17.6666V19C20 20.1046 19.1046 21 18 21H6C4.89543 21 4 20.1046 4 19V17.6666C4 17.2333 4.13576 16.8074 4.41847 16.479C6.25235 14.3488 8.96866 13 12 13C15.0313 13 17.7477 14.3488 19.5815 16.479Z" fill="black"/>
</svg>
