<svg width="24" height="24" viewBox="0 0 24 24" fill="none" xmlns="http://www.w3.org/2000/svg">
<g clip-path="url(#clip0_27_265)">
<path fill-rule="evenodd" clip-rule="evenodd" d="M7 10.5C9.07107 10.5 10.75 8.82107 10.75 6.75C10.75 4.67893 9.07107 3 7 3C4.92893 3 3.25 4.67893 3.25 6.75C3.25 8.82107 4.92893 10.5 7 10.5ZM7 8.5C7.9665 8.5 8.75 7.7165 8.75 6.75C8.75 5.7835 7.9665 5 7 5C6.0335 5 5.25 5.7835 5.25 6.75C5.25 7.7165 6.0335 8.5 7 8.5Z" fill="black"/>
<path fill-rule="evenodd" clip-rule="evenodd" d="M20.75 6.75C20.75 8.82107 19.0711 10.5 17 10.5C14.9289 10.5 13.25 8.82107 13.25 6.75C13.25 4.67893 14.9289 3 17 3C19.0711 3 20.75 4.67893 20.75 6.75ZM18.75 6.75C18.75 7.7165 17.9665 8.5 17 8.5C16.0335 8.5 15.25 7.7165 15.25 6.75C15.25 5.7835 16.0335 5 17 5C17.9665 5 18.75 5.7835 18.75 6.75Z" fill="black"/>
<path fill-rule="evenodd" clip-rule="evenodd" d="M15.4587 14.1763C15.9532 14.061 16.4691 14 17 14C18.9818 14 20.7624 14.8517 22 16.2153V18H16C16 18.7286 15.8052 19.4117 15.4649 20H22C23.1046 20 24 19.1046 24 18V16.1668C24 15.7334 23.8649 15.3068 23.5791 14.9811C21.9754 13.1536 19.6224 12 17 12C15.9266 12 14.8983 12.1933 13.948 12.547C14.3532 12.8904 14.7324 13.2632 15.0823 13.6619C15.2263 13.826 15.3513 13.9984 15.4587 14.1763ZM21.9998 16.1618C21.9998 16.1618 21.9998 16.1621 21.9999 16.1624L21.9998 16.162L21.9998 16.1618Z" fill="black"/>
<path fill-rule="evenodd" clip-rule="evenodd" d="M12 20C13.1046 20 14 19.1046 14 18V16.1668C14 15.7334 13.8649 15.3068 13.5791 14.9811C13.1123 14.4492 12.582 13.9743 12 13.5684C10.5827 12.5798 8.85906 12 7 12C4.37758 12 2.02461 13.1536 0.420908 14.9811C0.135096 15.3068 0 15.7334 0 16.1668V18C0 19.1046 0.895431 20 2 20H12ZM7 14C8.98184 14 10.7624 14.8517 12 16.2153V18H2V16.2153C3.23758 14.8517 5.01817 14 7 14ZM11.9999 16.1624C11.9998 16.162 11.9998 16.1617 11.9998 16.1617C11.9998 16.1617 11.9998 16.1619 11.9999 16.1624ZM2.0002 16.1617C2.0002 16.1617 2.00017 16.1619 2.00014 16.1624L2.0002 16.1617ZM2.0002 16.1618C2.00019 16.1619 2.00017 16.1621 2.00014 16.1624L2.0002 16.1618Z" fill="black"/>
</g>
<defs>
<clipPath id="clip0_27_265">
<rect width="24" height="24" fill="white"/>
</clipPath>
</defs>
</svg>
